<svg xmlns="http://www.w3.org/2000/svg" xmlns:xlink="http://www.w3.org/1999/xlink" width="62" height="63" version="1.1" viewBox="0 0 62 63"><title>actions</title><desc>Created with Sketch.</desc><g id="Version-2" fill="none" fill-rule="evenodd" stroke="none" stroke-width="1"><g id="Artboard" transform="translate(-670.000000, -42.000000)"><text id="Actions" fill="#FFF" font-family="OpenSans-Regular, Open Sans" font-size="14" font-weight="normal"><tspan x="674.632" y="116">Actions</tspan></text><g id="extruder" stroke="#FFF" stroke-linecap="round" stroke-width="2" transform="translate(674.000000, 45.000000)"><g id="Group" fill="#FFF"><path id="Line" d="M0.332729469,2.32910628 L3.99275362,0.332729469"/><path id="Line-2" d="M3.99275362,0.332729469 L9.64915459,0.332729469"/><path id="Line-3" stroke-linejoin="round" d="M9.64915459,0.332729469 L11.6455314,2.99456522"/><path id="Line-5" d="M0.332729469,2.32910628 L0.332729469,10.3146135"/><path id="Line-4" d="M11.6455314,2.99456522 L19.6310386,2.99456522"/><path id="Line-6" d="M0.332729469,10.3146135 L2.66183575,14.3073671"/><path id="Line-8" d="M2.66183575,31.6092995 L0.332729469,34.9365942"/><path id="Line-9" d="M0.332729469,34.9365942 L0.332729469,44.2530193"/><path id="Line-7" d="M2.66183575,14.3073671 L2.66183575,31.6092995"/><path id="Line-10" d="M0.332729469,44.2530193 L8.98369565,45.9166667"/><path id="Line-11" d="M8.98369565,45.9166667 L11.6455314,42.9221014"/><path id="Line-12" d="M11.6455314,42.9221014 L19.6310386,42.9221014"/></g><g id="Group" transform="translate(27.727456, 23.069243) scale(-1, 1) translate(-27.727456, -23.069243) translate(17.523752, 0.000000)"><path id="Line" d="M0.332729469,2.32910628 L3.99275362,0.332729469"/><path id="Line-2" d="M3.99275362,0.332729469 L9.64915459,0.332729469"/><path id="Line-3" stroke-linejoin="round" d="M9.64915459,0.332729469 L11.6455314,2.99456522"/><path id="Line-5" d="M0.332729469,2.32910628 L0.332729469,10.3146135"/><path id="Line-4" d="M11.6455314,2.99456522 L19.6310386,2.99456522"/><path id="Line-6" d="M0.332729469,10.3146135 L2.66183575,14.3073671"/><path id="Line-8" d="M2.66183575,31.6092995 L0.332729469,34.9365942"/><path id="Line-9" d="M0.332729469,34.9365942 L0.332729469,44.2530193"/><path id="Line-7" d="M2.66183575,14.3073671 L2.66183575,31.6092995"/><path id="Line-10" d="M0.332729469,44.2530193 L8.98369565,45.9166667"/><path id="Line-11" d="M8.98369565,45.9166667 L11.6455314,42.9221014"/><path id="Line-12" d="M11.6455314,42.9221014 L19.6310386,42.9221014"/></g></g><g id="move" stroke="#FFF" transform="translate(677.000000, 49.000000)"><path id="path4868-4" stroke-linecap="round" stroke-width="2.7" d="M25.7033415,35.9675196 C25.7033415,40.0620755 25.7033415,43.401567 25.7033415,49.4690555"/><polygon id="path7561-4" fill="#000" stroke-linejoin="round" stroke-width="1.5" points="36.655 44.308 26.416 52.668 16.069 44.395 20.165 41.051 23.48 43.701 23.342 33.944 29.165 33.891 29.302 43.623 32.517 40.998 36.655 44.308"/><circle id="path8128" cx="25.962" cy="26.198" r="3.539" fill="#FFF" stroke-linecap="round" stroke-linejoin="round" stroke-width="2.123" transform="translate(25.961706, 26.198412) rotate(-89.382484) translate(-25.961706, -26.198412)"/><polygon id="path7561-4-4" fill="#000" stroke-linejoin="round" stroke-width="1.5" points="36.39 8.469 26.151 .108 15.804 8.382 19.9 11.726 23.215 9.075 23.077 18.832 28.9 18.886 29.037 9.154 32.252 11.778 36.39 8.469"/><polygon id="path7561-4-8" fill="#000" stroke-linejoin="round" stroke-width="1.5" points="43.798 16.244 52.061 26.562 43.691 36.83 40.385 32.703 43.067 29.413 33.309 29.459 33.31 23.636 43.044 23.59 40.449 20.351 43.798 16.244"/><polygon id="path7561-4-8-0" fill="#000" stroke-linejoin="round" stroke-width="1.5" points="8.34 16.111 .076 26.429 8.447 36.698 11.752 32.571 9.07 29.28 18.828 29.326 18.828 23.504 9.094 23.458 11.689 20.219 8.34 16.111"/></g></g></g></svg>