<svg xmlns="http://www.w3.org/2000/svg" xmlns:xlink="http://www.w3.org/1999/xlink" width="74" height="62" version="1.1" viewBox="0 0 74 62"><title>bed-level</title><desc>Created with Sketch.</desc><g id="Page-1" fill="none" fill-rule="evenodd" stroke="none" stroke-width="1"><g id="Artboard" stroke="#FFF" transform="translate(-662.000000, -314.000000)"><g id="leveling" transform="translate(662.000000, 314.000000)"><path id="Path" fill="#FFF" stroke-linecap="round" stroke-width="3" d="M68.8858131,42.733564 C68.8858131,40.982699 67.4394464,39.5363322 65.6885813,39.5363322 L8.1384083,39.5363322 C6.38754325,39.5363322 4.94117647,40.982699 4.94117647,42.733564 L4.94117647,43.9515571 C4.94117647,45.7024221 6.38754325,47.1487889 8.1384083,47.1487889 L65.6885813,47.1487889 C67.4394464,47.1487889 68.8858131,45.7024221 68.8858131,43.9515571 L68.8858131,42.733564 Z"/><polyline id="Path" stroke-linejoin="round" stroke-width="2" points="11.031 49.433 11.031 54 17.121 54 17.121 49.433"/><polyline id="Path" stroke-linejoin="round" stroke-width="2" points="56.706 49.433 56.706 54 62.796 54 62.796 49.433"/><g id="Group" stroke-linejoin="round" transform="translate(4.761246, 6.000000)"><polyline id="Path" stroke-width="1.95" points="37.758 5.329 57.55 0 59.91 8.83 2.588 24.208 .228 15.377 20.097 10.048"/><polyline id="Path" points=".457 16.138 20.249 10.81 22.533 13.398 37.225 9.439 37.91 6.09 57.779 .761"/><polyline id="Path" stroke-width="2" points="19.336 10.277 20.021 6.927 36.235 2.588 38.443 5.176"/><path id="Path" stroke-width="1.901" d="M32.5051903,6.5467128 C32.6574394,7.07958478 32.3529412,7.53633218 31.8200692,7.68858131 L26.2629758,9.1349481 C25.7301038,9.28719723 25.2733564,8.98269896 25.1211073,8.44982699 L24.816609,7.30795848 C24.6643599,6.77508651 24.9688581,6.3183391 25.5017301,6.16608997 L31.0588235,4.71972318 C31.5916955,4.56747405 32.0484429,4.87197232 32.200692,5.40484429 L32.5051903,6.5467128 Z"/></g><path id="Path" stroke-linejoin="round" stroke-width="1.901" d="M7.98615917,34.2076125 L65.8408304,34.2076125"/><path id="Path" stroke-linejoin="round" stroke-width="2" d="M8.74740484,34.2076125 L65.8408304,18.982699"/><path id="Path" stroke-linejoin="round" stroke-width="2" d="M39.5017301,25.83391 C40.7197232,27.1280277 41.4809689,28.8788927 41.4809689,30.7820069 C41.4809689,32 41.1764706,33.2179931 40.6435986,34.2076125"/></g></g></g></svg>