<svg xmlns="http://www.w3.org/2000/svg" xmlns:xlink="http://www.w3.org/1999/xlink" width="70" height="65" version="1.1" viewBox="0 0 70 65"><title>bed</title><desc>Created with Sketch.</desc><g id="Page-1" fill="none" fill-rule="evenodd" stroke="none" stroke-width="1"><g id="Artboard" stroke="#FFF" transform="translate(-67.000000, -348.000000)"><g id="bed" transform="translate(67.000000, 348.000000)"><path id="Path" stroke-linecap="round" d="M9.58823529,53.4117647 L12.8823529,45.7254902"/><path id="Path" stroke-linecap="round" d="M17.2745098,53.4117647 L20.5686275,45.7254902"/><path id="Path" stroke-linecap="round" d="M24.9607843,53.4117647 L28.254902,45.7254902"/><path id="Path" stroke-linecap="round" d="M32.6470588,53.4117647 L35.9411765,45.7254902"/><path id="Path" stroke-linecap="round" d="M40.3333333,53.4117647 L43.627451,45.7254902"/><path id="Path" stroke-linecap="round" d="M48.0196078,53.4117647 L51.3137255,45.7254902"/><path id="Path" stroke-linecap="round" d="M55.7058824,53.4117647 L59,45.7254902"/><path id="Path" fill="#FFF" stroke-linecap="round" stroke-width="3" d="M66.6862745,48.9537255 C66.6862745,47.1858824 65.2457516,45.7254902 63.5019608,45.7254902 L6.18431373,45.7254902 C4.44052288,45.7254902 3,47.1858824 3,48.9537255 L3,50.1835294 C3,51.9513725 4.44052288,53.4117647 6.18431373,53.4117647 L63.5019608,53.4117647 C65.2457516,53.4117647 66.6862745,51.9513725 66.6862745,50.1835294 L66.6862745,48.9537255 Z"/><polyline id="Path" stroke-linejoin="round" stroke-width="3" points="8.49 55.608 8.49 60 15.078 60 15.078 55.608"/><polyline id="Path" stroke-linejoin="round" stroke-width="3" points="54.608 55.608 54.608 60 61.196 60 61.196 55.608"/><path id="Path" stroke-linecap="round" stroke-linejoin="round" stroke-width="3" d="M34.8431373,41.3333333 C34.8431373,41.3333333 38.1372549,32.2421823 38.1372549,28.8888889 C38.1372549,25.3120426 31.5490196,20.170326 31.5490196,16.4444444 C31.5490196,13.091151 34.8431373,4 34.8431373,4"/><path id="Path" stroke-linecap="round" stroke-linejoin="round" stroke-width="3" d="M46.9215686,41.3333333 C46.9215686,41.3333333 50.2156863,32.2421823 50.2156863,28.8888889 C50.2156863,25.3120426 43.627451,20.170326 43.627451,16.4444444 C43.627451,13.091151 46.9215686,4 46.9215686,4"/><path id="Path" stroke-linecap="round" stroke-linejoin="round" stroke-width="3" d="M22.7647059,41.3333333 C22.7647059,41.3333333 26.0588235,32.2421823 26.0588235,28.8888889 C26.0588235,25.3120426 19.4705882,20.170326 19.4705882,16.4444444 C19.4705882,13.091151 22.7647059,4 22.7647059,4"/><path id="Path" stroke-linecap="round" stroke-linejoin="round" stroke-width="3" d="M59,41.3333333 C59,41.3333333 62.2941176,32.2421823 62.2941176,28.8888889 C62.2941176,25.3120426 55.7058824,20.170326 55.7058824,16.4444444 C55.7058824,13.091151 59,4 59,4"/><path id="Path" stroke-linecap="round" stroke-linejoin="round" stroke-width="3" d="M10.6862745,41.3333333 C10.6862745,41.3333333 13.9803922,32.2421823 13.9803922,28.8888889 C13.9803922,25.3120426 7.39215686,20.170326 7.39215686,16.4444444 C7.39215686,13.091151 10.6862745,4 10.6862745,4"/></g></g></g></svg>