<svg xmlns="http://www.w3.org/2000/svg" xmlns:svg="http://www.w3.org/2000/svg" id="svg4160" width="60.138" height="60.777" version="1.1" viewBox="0 0 60.138 60.777"><metadata id="metadata4165"/><g id="layer10" style="display:inline" transform="translate(-3.5328446,2.2636422)"><g id="g61" transform="matrix(0.89278151,0,0,0.89278151,-10.449765,-12.817863)"><path id="path4221" d="m 54.838779,44.513003 7.725496,0.057 L 62,47.230841 61.9597,72.589313 c -0.0035,2.198979 -6.565855,2.158658 -6.556642,-0.04031 0.03267,-7.798473 -5e-6,-25.479387 -5e-6,-25.479387 z" style="display:inline;fill:#fff;fill-opacity:1;fill-rule:evenodd;stroke:#fff;stroke-width:1px;stroke-linecap:butt;stroke-linejoin:miter;stroke-opacity:1"/><path id="path4164" d="M 38.239995,45.315428 V 70.465959" style="fill:none;fill-rule:evenodd;stroke:#fff;stroke-width:9;stroke-linecap:round;stroke-linejoin:round;stroke-miterlimit:4;stroke-dasharray:none;stroke-opacity:1"/><path id="path4206" d="m 36.969006,17.684005 -1.617943,4.021956 1.658248,4.479144 -0.0403,15.4989 2.947987,-0.057 0.057,-15.424486 1.49989,-4.515399 -1.476279,-4.003115 z" style="fill:#fff;fill-opacity:1;fill-rule:evenodd;stroke:#fff;stroke-width:1px;stroke-linecap:butt;stroke-linejoin:miter;stroke-opacity:1"/><path id="path4219" d="m 48.228001,17.688992 c -3.333333,0 -2.828427,10 0,10 l 2.016336,0.04031 c 0.983664,-1.04031 2.983664,-1.04031 3.910687,-0.04031 l 1.165959,0.057 0.07748,13.879587 6.736285,0.09975 0.06725,-14.036338 0.93272,-0.057 c 1,-3 5.611277,-3.087995 9.094941,-3.080362 -1.001655,-1.862638 -5.001655,-5.862638 -9.004551,-6.788942 l -1.821115,-0.0737 -7.086676,0.04031 c -1.089313,0.959695 -3.089313,0.959695 -4.072443,-0.04031 z" style="fill:none;fill-opacity:1;fill-rule:evenodd;stroke:#fff;stroke-width:2;stroke-linecap:butt;stroke-linejoin:miter;stroke-miterlimit:4;stroke-dasharray:none;stroke-opacity:1"/><ellipse id="path4184-4" cx="58.702" cy="70.186" rx="1.951" ry="2.002" style="fill:#232323;fill-opacity:1;stroke:none;stroke-width:4;stroke-linecap:round;stroke-linejoin:round;stroke-miterlimit:4;stroke-dasharray:none;stroke-opacity:1"/></g></g></svg>