<svg xmlns="http://www.w3.org/2000/svg" xmlns:svg="http://www.w3.org/2000/svg" id="svg4160" width="60.138" height="60.777" version="1.1" viewBox="0 0 60.138 60.777"><metadata id="metadata4165"/><g id="layer3" style="display:inline" transform="translate(-3.5328446,2.2636422)"><g transform="translate(-6.6418952,-14.148886)" style="display:inline" id="g72"><path id="path4720" d="m 34.812458,60.727914 -5.319943,-5.9375 5.28574,-0.0473 c 2.907157,-0.02602 7.653857,-0.02602 10.548223,0 l 5.262483,0.0473 -5.128555,5.926352 c -2.820705,3.259494 -5.173431,5.931369 -5.22828,5.9375 -0.05485,0.0061 -2.4937,-2.660727 -5.419668,-5.926352 z" style="fill:none;stroke:none;stroke-width:.53600001;stroke-linecap:round;stroke-linejoin:round;stroke-miterlimit:4;stroke-dasharray:none;stroke-opacity:1"/><path id="path4722" d="M 20.242566,44.2547 V 37.022557 H 39.52828 58.813995 V 44.2547 51.486843 H 39.52828 20.242566 Z" style="fill:none;stroke:none;stroke-width:.53600001;stroke-linecap:round;stroke-linejoin:round;stroke-miterlimit:4;stroke-dasharray:none;stroke-opacity:1"/><path id="path4178" d="m -30,39 c 0.632011,0.433543 -0.272595,1.065833 -0.720576,1.050444 -1.214003,-0.0417 -1.679539,-1.500029 -1.380313,-2.491597 0.535246,-1.773681 2.672376,-2.367848 4.262618,-1.71018 2.333744,0.965154 3.072795,3.859266 2.040048,6.033638 -1.376489,2.898097 -5.051141,3.784606 -7.804659,2.369916 -3.465021,-1.780242 -4.499921,-6.245348 -2.699784,-9.575679 2.180207,-4.033478 7.44086,-5.217257 11.3467,-3.029652 4.602897,2.578016 5.93586,8.637184 3.35952,13.117721 -2.974486,5.172956 -9.83405,6.655308 -14.888741,3.689388 -5.743461,-3.370068 -7.375348,-11.031299 -4.019256,-16.659762 3.765029,-6.314286 12.228824,-8.095819 18.430783,-4.349124 6.885349,4.159541 8.816611,13.42656 4.678991,20.201803 -1.758712,2.879846 -4.465402,5.124393 -7.605341,6.353087" transform="matrix(-0.39323461,-0.91943816,-0.91943816,0.39323461,72.997408,-2.793443)" style="fill:none;fill-rule:evenodd;stroke:#fff;stroke-width:3;stroke-linecap:butt;stroke-linejoin:round;stroke-miterlimit:4;stroke-dasharray:none;stroke-opacity:1"/><path id="path4180" d="m 33.192357,41.098016 v 10" style="fill:none;fill-rule:evenodd;stroke:#fff;stroke-width:3;stroke-linecap:butt;stroke-linejoin:round;stroke-miterlimit:4;stroke-dasharray:none;stroke-opacity:1"/><path id="rect4168-1" d="m 27.550395,53.380592 h 12.333148 c 0,2.706787 2.773471,5.30695 0,8.120362 H 27.550395 c -2.459785,-2.813412 0,-5.413575 0,-8.120362 z" style="display:inline;fill:none;stroke:#fff;stroke-width:2;stroke-linecap:round;stroke-linejoin:round;stroke-miterlimit:4;stroke-dasharray:none;stroke-opacity:1"/><path id="path4710-2" d="m 29.752599,64.146236 3.756999,5.270354 3.638377,-5.270354 z" style="display:inline;fill:none;fill-rule:evenodd;stroke:#fff;stroke-width:2;stroke-linecap:butt;stroke-linejoin:round;stroke-miterlimit:4;stroke-dasharray:none;stroke-opacity:1"/><path id="path4216" d="m 22.904724,33.630688 c 0,-9.664983 7.835017,-17.5 17.5,-17.5" style="fill:none;fill-opacity:1;fill-rule:nonzero;stroke:#fff;stroke-width:4;stroke-linecap:round;stroke-linejoin:round;stroke-miterlimit:4;stroke-dasharray:none;stroke-opacity:1"/><path id="path4710-2-1" d="m 18.23118,33.11279 5.187416,7.118657 5.023631,-7.118657 z" style="display:inline;fill:#fff;fill-opacity:1;fill-rule:evenodd;stroke:#fff;stroke-width:2.73126698;stroke-linecap:butt;stroke-linejoin:round;stroke-miterlimit:4;stroke-dasharray:none;stroke-opacity:1"/></g></g></svg>