<svg xmlns="http://www.w3.org/2000/svg" xmlns:xlink="http://www.w3.org/1999/xlink" id="Layer_1" width="62.226" height="62.889" x="0" y="0" enable-background="new 0 0 62.226 62.889" version="1.1" viewBox="0 0 62.226 62.889" xml:space="preserve"><g id="Hex_fill"><line x1="12.569" x2="9.85" y1="8.493" y2="13.103" fill="none" stroke="#FFF" stroke-miterlimit="10" stroke-width=".562"/><polygon fill="none" stroke="#FFF" stroke-miterlimit="10" stroke-width=".562" points="4.56 22.335 3.889 21.173 5.897 16.993 8.569 13.119 8.572 13.119 9.881 13.119 12.543 17.726 9.881 22.335"/><polygon fill="none" stroke="#FFF" stroke-miterlimit="10" stroke-width=".562" points="4.56 31.551 1.9 26.941 4.56 22.337 9.881 22.337 12.543 26.941 9.881 31.551"/><polygon fill="none" stroke="#FFF" stroke-miterlimit="10" stroke-width=".562" points="4.56 40.767 1.9 36.159 4.56 31.552 9.881 31.552 12.543 36.159 9.881 40.767"/><polygon fill="none" stroke="#FFF" stroke-miterlimit="10" stroke-width=".562" points="4.56 40.769 3.889 41.931 5.897 46.109 8.569 49.984 8.572 49.984 9.881 49.984 12.543 45.377 9.881 40.769"/><line x1="9.834" x2="12.553" y1="49.978" y2="54.588" fill="none" stroke="#FFF" stroke-miterlimit="10" stroke-width=".562"/><line x1="12.531" x2="17.875" y1="8.503" y2="8.503" fill="none" stroke="#FFF" stroke-miterlimit="10" stroke-width=".562"/><line x1="12.531" x2="17.875" y1="17.722" y2="17.722" fill="none" stroke="#FFF" stroke-miterlimit="10" stroke-width=".562"/><line x1="12.531" x2="17.875" y1="26.942" y2="26.942" fill="none" stroke="#FFF" stroke-miterlimit="10" stroke-width=".562"/><line x1="12.531" x2="17.875" y1="36.162" y2="36.162" fill="none" stroke="#FFF" stroke-miterlimit="10" stroke-width=".562"/><line x1="12.531" x2="17.875" y1="45.383" y2="45.383" fill="none" stroke="#FFF" stroke-miterlimit="10" stroke-width=".562"/><line x1="12.531" x2="17.875" y1="54.602" y2="54.602" fill="none" stroke="#FFF" stroke-miterlimit="10" stroke-width=".562"/><polygon fill="none" stroke="#FFF" stroke-miterlimit="10" stroke-width=".562" points="20.56 13.117 17.9 8.508 20.56 3.902 25.881 3.902 28.543 8.508 25.881 13.117"/><polygon fill="none" stroke="#FFF" stroke-miterlimit="10" stroke-width=".562" points="20.56 22.335 17.9 17.726 20.56 13.119 25.881 13.119 28.543 17.726 25.881 22.335"/><polygon fill="none" stroke="#FFF" stroke-miterlimit="10" stroke-width=".562" points="20.56 31.551 17.9 26.941 20.56 22.337 25.881 22.337 28.543 26.941 25.881 31.551"/><polygon fill="none" stroke="#FFF" stroke-miterlimit="10" stroke-width=".562" points="20.56 40.767 17.9 36.159 20.56 31.552 25.881 31.552 28.543 36.159 25.881 40.767"/><polygon fill="none" stroke="#FFF" stroke-miterlimit="10" stroke-width=".562" points="20.56 49.984 17.9 45.375 20.56 40.769 25.881 40.769 28.543 45.375 25.881 49.984"/><polygon fill="none" stroke="#FFF" stroke-miterlimit="10" stroke-width=".562" points="20.56 59.2 17.9 54.594 20.56 49.985 25.881 49.985 28.543 54.594 25.881 59.2"/><line x1="28.531" x2="33.875" y1="8.503" y2="8.503" fill="none" stroke="#FFF" stroke-miterlimit="10" stroke-width=".562"/><line x1="28.531" x2="33.875" y1="17.722" y2="17.722" fill="none" stroke="#FFF" stroke-miterlimit="10" stroke-width=".562"/><line x1="28.531" x2="33.875" y1="26.942" y2="26.942" fill="none" stroke="#FFF" stroke-miterlimit="10" stroke-width=".562"/><line x1="28.531" x2="33.875" y1="36.162" y2="36.162" fill="none" stroke="#FFF" stroke-miterlimit="10" stroke-width=".562"/><line x1="28.531" x2="33.875" y1="45.383" y2="45.383" fill="none" stroke="#FFF" stroke-miterlimit="10" stroke-width=".562"/><line x1="28.531" x2="33.875" y1="54.602" y2="54.602" fill="none" stroke="#FFF" stroke-miterlimit="10" stroke-width=".562"/><polygon fill="none" stroke="#FFF" stroke-miterlimit="10" stroke-width=".562" points="36.561 13.117 33.901 8.508 36.561 3.902 41.881 3.902 44.543 8.508 41.881 13.117"/><polygon fill="none" stroke="#FFF" stroke-miterlimit="10" stroke-width=".562" points="36.561 22.335 33.901 17.726 36.561 13.119 41.881 13.119 44.543 17.726 41.881 22.335"/><polygon fill="none" stroke="#FFF" stroke-miterlimit="10" stroke-width=".562" points="36.561 31.551 33.901 26.941 36.561 22.337 41.881 22.337 44.543 26.941 41.881 31.551"/><polygon fill="none" stroke="#FFF" stroke-miterlimit="10" stroke-width=".562" points="36.561 40.767 33.901 36.159 36.561 31.552 41.881 31.552 44.543 36.159 41.881 40.767"/><polygon fill="none" stroke="#FFF" stroke-miterlimit="10" stroke-width=".562" points="36.561 49.984 33.901 45.375 36.561 40.769 41.881 40.769 44.543 45.375 41.881 49.984"/><polygon fill="none" stroke="#FFF" stroke-miterlimit="10" stroke-width=".562" points="36.561 59.2 33.901 54.594 36.561 49.985 41.881 49.985 44.543 54.594 41.881 59.2"/><line x1="44.532" x2="49.875" y1="8.503" y2="8.503" fill="none" stroke="#FFF" stroke-miterlimit="10" stroke-width=".562"/><line x1="44.532" x2="49.875" y1="17.722" y2="17.722" fill="none" stroke="#FFF" stroke-miterlimit="10" stroke-width=".562"/><line x1="44.532" x2="49.875" y1="26.942" y2="26.942" fill="none" stroke="#FFF" stroke-miterlimit="10" stroke-width=".562"/><line x1="44.532" x2="49.875" y1="36.162" y2="36.162" fill="none" stroke="#FFF" stroke-miterlimit="10" stroke-width=".562"/><line x1="44.532" x2="49.875" y1="45.383" y2="45.383" fill="none" stroke="#FFF" stroke-miterlimit="10" stroke-width=".562"/><line x1="44.532" x2="49.875" y1="54.602" y2="54.602" fill="none" stroke="#FFF" stroke-miterlimit="10" stroke-width=".562"/><line x1="49.834" x2="52.569" y1="8.478" y2="13.118" fill="none" stroke="#FFF" stroke-miterlimit="10" stroke-width=".562"/><polygon fill="none" stroke="#FFF" stroke-miterlimit="10" stroke-width=".562" points="57.884 22.335 58.555 21.173 56.547 16.994 53.875 13.119 53.873 13.119 52.563 13.119 49.901 17.726 52.563 22.335"/><polygon fill="none" stroke="#FFF" stroke-miterlimit="10" stroke-width=".562" points="52.561 31.551 49.901 26.941 52.561 22.337 57.881 22.337 60.543 26.941 57.881 31.551"/><polygon fill="none" stroke="#FFF" stroke-miterlimit="10" stroke-width=".562" points="52.561 40.767 49.901 36.159 52.561 31.552 57.881 31.552 60.543 36.159 57.881 40.767"/><polygon fill="none" stroke="#FFF" stroke-miterlimit="10" stroke-width=".562" points="57.884 40.769 58.555 41.931 56.547 46.109 53.875 49.984 53.873 49.984 52.563 49.984 49.901 45.377 52.563 40.769"/><line x1="52.553" x2="49.834" y1="49.963" y2="54.588" fill="none" stroke="#FFF" stroke-miterlimit="10" stroke-width=".562"/></g><g id="Rings"><circle id="Outter_ring" cx="31.188" cy="31.589" r="29.188" fill="none" stroke="#FFF" stroke-miterlimit="10" stroke-width="3.002"/><circle id="Inner_ring" cx="31.188" cy="31.59" r="13.625" stroke="#FFF" stroke-miterlimit="10" stroke-width="3.002"/></g></svg>