<svg xmlns="http://www.w3.org/2000/svg" xmlns:xlink="http://www.w3.org/1999/xlink" id="Layer_1" width="93.988" height="93.99" x="0" y="0" enable-background="new 0 0 93.988 93.99" version="1.1" viewBox="0 0 93.988 93.99" xml:space="preserve"><g id="Row_1"><g id="hotend_block_and_nozzle_1"><line x1="21.056" x2="22.967" y1="38.364" y2="38.364" fill="none" stroke="#FFF" stroke-linecap="round" stroke-linejoin="round" stroke-miterlimit="10" stroke-width="2.254"/><path fill="none" stroke="#FFF" stroke-linecap="round" stroke-linejoin="round" stroke-miterlimit="10" stroke-width="2.254" d="M22.969,38.364c0.149,0,0.29-0.074,0.376-0.197"/><path fill="none" stroke="#FFF" stroke-linecap="round" stroke-linejoin="round" stroke-miterlimit="10" stroke-width="2.254" d="M20.699,38.166c0.086,0.122,0.226,0.196,0.375,0.196"/><line x1="20.697" x2="17.43" y1="38.17" y2="33.476" fill="none" stroke="#FFF" stroke-linecap="round" stroke-linejoin="round" stroke-miterlimit="10" stroke-width="2.254"/><line x1="23.35" x2="26.616" y1="38.17" y2="33.476" fill="none" stroke="#FFF" stroke-linecap="round" stroke-linejoin="round" stroke-miterlimit="10" stroke-width="2.254"/><line x1="16" x2="16" y1="26.23" y2="25.107" fill="none" stroke="#FFF" stroke-linecap="round" stroke-linejoin="round" stroke-miterlimit="10" stroke-width="2.254"/><line x1="28.043" x2="28.043" y1="26.23" y2="25.107" fill="none" stroke="#FFF" stroke-linecap="round" stroke-linejoin="round" stroke-miterlimit="10" stroke-width="2.254"/><line x1="30.492" x2="13.55" y1="25.107" y2="25.107" fill="none" stroke="#FFF" stroke-linecap="round" stroke-linejoin="round" stroke-miterlimit="10" stroke-width="2.254"/><line x1="30.492" x2="30.492" y1="23.882" y2="25.107" fill="none" stroke="#FFF" stroke-linecap="round" stroke-linejoin="round" stroke-miterlimit="10" stroke-width="2.254"/><line x1="13.55" x2="13.55" y1="23.882" y2="25.107" fill="none" stroke="#FFF" stroke-linecap="round" stroke-linejoin="round" stroke-miterlimit="10" stroke-width="2.254"/><rect width="19.499" height="7.241" x="12.325" y="26.226" fill="none" stroke="#FFF" stroke-linecap="round" stroke-linejoin="round" stroke-miterlimit="10" stroke-width="2.254"/><rect width="9.789" height="7.241" x="17.123" y="26.226" fill="none" stroke="#FFF" stroke-linecap="round" stroke-linejoin="round" stroke-miterlimit="10" stroke-width="2.254"/><rect width="38.579" height="15.083" x="2.731" y="8.786" fill="none" stroke="#FFF" stroke-linecap="round" stroke-linejoin="round" stroke-miterlimit="10" stroke-width="2.254"/></g><g id="hotend_block_and_nozzle_2"><line x1="70.838" x2="72.748" y1="38.364" y2="38.364" fill="none" stroke="#FFF" stroke-linecap="round" stroke-linejoin="round" stroke-miterlimit="10" stroke-width="2.254"/><path fill="none" stroke="#FFF" stroke-linecap="round" stroke-linejoin="round" stroke-miterlimit="10" stroke-width="2.254" d="M72.75,38.364c0.15,0,0.291-0.074,0.377-0.197"/><path fill="none" stroke="#FFF" stroke-linecap="round" stroke-linejoin="round" stroke-miterlimit="10" stroke-width="2.254" d="M70.48,38.166c0.088,0.122,0.227,0.196,0.377,0.196"/><line x1="70.478" x2="67.211" y1="38.17" y2="33.476" fill="none" stroke="#FFF" stroke-linecap="round" stroke-linejoin="round" stroke-miterlimit="10" stroke-width="2.254"/><line x1="73.133" x2="76.398" y1="38.17" y2="33.476" fill="none" stroke="#FFF" stroke-linecap="round" stroke-linejoin="round" stroke-miterlimit="10" stroke-width="2.254"/><line x1="65.781" x2="65.781" y1="26.23" y2="25.107" fill="none" stroke="#FFF" stroke-linecap="round" stroke-linejoin="round" stroke-miterlimit="10" stroke-width="2.254"/><line x1="77.826" x2="77.826" y1="26.23" y2="25.107" fill="none" stroke="#FFF" stroke-linecap="round" stroke-linejoin="round" stroke-miterlimit="10" stroke-width="2.254"/><line x1="80.273" x2="63.332" y1="25.107" y2="25.107" fill="none" stroke="#FFF" stroke-linecap="round" stroke-linejoin="round" stroke-miterlimit="10" stroke-width="2.254"/><line x1="80.273" x2="80.273" y1="23.882" y2="25.107" fill="none" stroke="#FFF" stroke-linecap="round" stroke-linejoin="round" stroke-miterlimit="10" stroke-width="2.254"/><line x1="63.332" x2="63.332" y1="23.882" y2="25.107" fill="none" stroke="#FFF" stroke-linecap="round" stroke-linejoin="round" stroke-miterlimit="10" stroke-width="2.254"/><rect width="19.498" height="7.241" x="62.107" y="26.226" fill="none" stroke="#FFF" stroke-linecap="round" stroke-linejoin="round" stroke-miterlimit="10" stroke-width="2.254"/><rect width="9.789" height="7.241" x="66.904" y="26.226" fill="none" stroke="#FFF" stroke-linecap="round" stroke-linejoin="round" stroke-miterlimit="10" stroke-width="2.254"/><rect width="38.58" height="15.083" x="52.511" y="8.786" fill="none" stroke="#FFF" stroke-linecap="round" stroke-linejoin="round" stroke-miterlimit="10" stroke-width="2.254"/></g></g><g id="Row_2"><g id="hotend_block_and_nozzle_3"><line x1="21.056" x2="22.967" y1="86.364" y2="86.364" fill="none" stroke="#FFF" stroke-linecap="round" stroke-linejoin="round" stroke-miterlimit="10" stroke-width="2.254"/><path fill="none" stroke="#FFF" stroke-linecap="round" stroke-linejoin="round" stroke-miterlimit="10" stroke-width="2.254" d="M22.969,86.364c0.149,0,0.29-0.074,0.376-0.197"/><path fill="none" stroke="#FFF" stroke-linecap="round" stroke-linejoin="round" stroke-miterlimit="10" stroke-width="2.254" d="M20.699,86.166c0.086,0.122,0.226,0.196,0.375,0.196"/><line x1="20.697" x2="17.43" y1="86.17" y2="81.476" fill="none" stroke="#FFF" stroke-linecap="round" stroke-linejoin="round" stroke-miterlimit="10" stroke-width="2.254"/><line x1="23.35" x2="26.616" y1="86.17" y2="81.476" fill="none" stroke="#FFF" stroke-linecap="round" stroke-linejoin="round" stroke-miterlimit="10" stroke-width="2.254"/><line x1="16" x2="16" y1="74.23" y2="73.107" fill="none" stroke="#FFF" stroke-linecap="round" stroke-linejoin="round" stroke-miterlimit="10" stroke-width="2.254"/><line x1="28.043" x2="28.043" y1="74.23" y2="73.107" fill="none" stroke="#FFF" stroke-linecap="round" stroke-linejoin="round" stroke-miterlimit="10" stroke-width="2.254"/><line x1="30.492" x2="13.55" y1="73.107" y2="73.107" fill="none" stroke="#FFF" stroke-linecap="round" stroke-linejoin="round" stroke-miterlimit="10" stroke-width="2.254"/><line x1="30.492" x2="30.492" y1="71.882" y2="73.107" fill="none" stroke="#FFF" stroke-linecap="round" stroke-linejoin="round" stroke-miterlimit="10" stroke-width="2.254"/><line x1="13.55" x2="13.55" y1="71.882" y2="73.107" fill="none" stroke="#FFF" stroke-linecap="round" stroke-linejoin="round" stroke-miterlimit="10" stroke-width="2.254"/><rect width="19.499" height="7.241" x="12.325" y="74.226" fill="none" stroke="#FFF" stroke-linecap="round" stroke-linejoin="round" stroke-miterlimit="10" stroke-width="2.254"/><rect width="9.789" height="7.241" x="17.123" y="74.226" fill="none" stroke="#FFF" stroke-linecap="round" stroke-linejoin="round" stroke-miterlimit="10" stroke-width="2.254"/><rect width="38.58" height="15.083" x="2.731" y="56.786" fill="none" stroke="#FFF" stroke-linecap="round" stroke-linejoin="round" stroke-miterlimit="10" stroke-width="2.254"/></g><g id="hotend_block_and_nozzle_4"><line x1="70.838" x2="72.748" y1="86.364" y2="86.364" fill="none" stroke="#FFF" stroke-linecap="round" stroke-linejoin="round" stroke-miterlimit="10" stroke-width="2.254"/><path fill="none" stroke="#FFF" stroke-linecap="round" stroke-linejoin="round" stroke-miterlimit="10" stroke-width="2.254" d="M72.75,86.364c0.15,0,0.291-0.074,0.377-0.197"/><path fill="none" stroke="#FFF" stroke-linecap="round" stroke-linejoin="round" stroke-miterlimit="10" stroke-width="2.254" d="M70.48,86.166c0.088,0.122,0.227,0.196,0.377,0.196"/><line x1="70.478" x2="67.211" y1="86.17" y2="81.476" fill="none" stroke="#FFF" stroke-linecap="round" stroke-linejoin="round" stroke-miterlimit="10" stroke-width="2.254"/><line x1="73.133" x2="76.398" y1="86.17" y2="81.476" fill="none" stroke="#FFF" stroke-linecap="round" stroke-linejoin="round" stroke-miterlimit="10" stroke-width="2.254"/><line x1="65.781" x2="65.781" y1="74.23" y2="73.107" fill="none" stroke="#FFF" stroke-linecap="round" stroke-linejoin="round" stroke-miterlimit="10" stroke-width="2.254"/><line x1="77.826" x2="77.826" y1="74.23" y2="73.107" fill="none" stroke="#FFF" stroke-linecap="round" stroke-linejoin="round" stroke-miterlimit="10" stroke-width="2.254"/><line x1="80.273" x2="63.332" y1="73.107" y2="73.107" fill="none" stroke="#FFF" stroke-linecap="round" stroke-linejoin="round" stroke-miterlimit="10" stroke-width="2.254"/><line x1="80.273" x2="80.273" y1="71.882" y2="73.107" fill="none" stroke="#FFF" stroke-linecap="round" stroke-linejoin="round" stroke-miterlimit="10" stroke-width="2.254"/><line x1="63.332" x2="63.332" y1="71.882" y2="73.107" fill="none" stroke="#FFF" stroke-linecap="round" stroke-linejoin="round" stroke-miterlimit="10" stroke-width="2.254"/><rect width="19.498" height="7.241" x="62.107" y="74.226" fill="none" stroke="#FFF" stroke-linecap="round" stroke-linejoin="round" stroke-miterlimit="10" stroke-width="2.254"/><rect width="9.789" height="7.241" x="66.904" y="74.226" fill="none" stroke="#FFF" stroke-linecap="round" stroke-linejoin="round" stroke-miterlimit="10" stroke-width="2.254"/><rect width="38.58" height="15.083" x="52.511" y="56.786" fill="none" stroke="#FFF" stroke-linecap="round" stroke-linejoin="round" stroke-miterlimit="10" stroke-width="2.254"/></g></g></svg>