<svg xmlns="http://www.w3.org/2000/svg" xmlns:xlink="http://www.w3.org/1999/xlink" id="Layer_1" width="52" height="60" x="0" y="0" enable-background="new 0 0 52 60" version="1.1" viewBox="0 0 52 60" xml:space="preserve"><g id="Layer_2"><g><g><line x1="10.636" x2="41.363" y1="9.796" y2="9.796" fill="none" stroke="#FFF" stroke-miterlimit="10" stroke-width="2.154"/><rect width="29.47" height="4.562" x="11.266" y=".8" fill="none" stroke="#FFF" stroke-linecap="round" stroke-linejoin="round" stroke-miterlimit="10" stroke-width="1.408"/><rect width="15.706" height="4.338" x="18.146" y="5.362" fill="none" stroke="#FFF" stroke-miterlimit="10" stroke-width="1.359"/></g><g><line x1="7.709" x2="44.291" y1="14.497" y2="14.497" fill="none" stroke="#FFF" stroke-miterlimit="10" stroke-width="2.35"/><rect width="17.009" height="4.797" x="17.496" y="9.7" fill="none" stroke="#FFF" stroke-miterlimit="10" stroke-width="1.388"/></g><g><line x1="7.709" x2="44.291" y1="19.294" y2="19.294" fill="none" stroke="#FFF" stroke-miterlimit="10" stroke-width="2.35"/><rect width="17.997" height="4.796" x="17.002" y="14.497" fill="none" stroke="#FFF" stroke-miterlimit="10" stroke-width="1.388"/></g><g><line x1="7.709" x2="44.291" y1="24.088" y2="24.088" fill="none" stroke="#FFF" stroke-miterlimit="10" stroke-width="2.35"/><rect width="18.968" height="4.732" x="16.516" y="19.294" fill="none" stroke="#FFF" stroke-miterlimit="10" stroke-width="1.388"/></g><g><line x1="7.709" x2="44.291" y1="28.822" y2="28.822" fill="none" stroke="#FFF" stroke-miterlimit="10" stroke-width="2.35"/><rect width="19.969" height="4.795" x="16.015" y="24.026" fill="none" stroke="#FFF" stroke-miterlimit="10" stroke-width="1.388"/></g><g><line x1="7.709" x2="44.291" y1="33.619" y2="33.619" fill="none" stroke="#FFF" stroke-miterlimit="10" stroke-width="2.35"/><g><line x1="23.155" x2="23.155" y1="38.145" y2="34.159" fill="none" stroke="#FFF" stroke-linejoin="round" stroke-miterlimit="10" stroke-width="1.411"/><line x1="28.85" x2="28.85" y1="38.145" y2="34.159" fill="none" stroke="#FFF" stroke-linejoin="round" stroke-miterlimit="10" stroke-width="1.411"/><path fill="none" stroke="#FFF" stroke-linejoin="round" stroke-miterlimit="10" stroke-width="1.411" d="M10.637,46.762"/><g><line x1="25.229" x2="26.755" y1="58.863" y2="58.863" fill="none" stroke="#FFF" stroke-linejoin="round" stroke-miterlimit="10" stroke-width="1.411"/><path fill="none" stroke="#FFF" stroke-linejoin="round" stroke-miterlimit="10" stroke-width="1.411" d="M26.758,58.863 c0.12,0,0.23-0.059,0.299-0.155"/><path fill="none" stroke="#FFF" stroke-linejoin="round" stroke-miterlimit="10" stroke-width="1.411" d="M24.949,58.708 c0.066,0.094,0.178,0.155,0.298,0.155"/><line x1="24.946" x2="22.343" y1="58.708" y2="54.973" fill="none" stroke="#FFF" stroke-linejoin="round" stroke-miterlimit="10" stroke-width="1.411"/><line x1="27.062" x2="29.662" y1="58.708" y2="54.973" fill="none" stroke="#FFF" stroke-linejoin="round" stroke-miterlimit="10" stroke-width="1.411"/><rect width="15.533" height="5.771" x="18.278" y="49.191" fill="none" stroke="#FFF" stroke-linejoin="round" stroke-miterlimit="10" stroke-width="1.411"/><rect width="7.801" height="5.771" x="22.097" y="49.191" fill="none" stroke="#FFF" stroke-linejoin="round" stroke-miterlimit="10" stroke-width="1.411"/></g><rect width="30.731" height="11.049" x="10.635" y="38.145" fill="none" stroke="#FFF" stroke-linejoin="round" stroke-miterlimit="10" stroke-width="1.411"/></g><rect width="20.945" height="4.797" x="15.528" y="28.822" fill="none" stroke="#FFF" stroke-miterlimit="10" stroke-width="1.388"/></g></g></g><g id="circle_index" transform="translate(62.000000, 173.000000)"><circle id="Oval_1_" cx="-23.595" cy="-159.406" r="13.594" fill="#FFF"/><text fill="#010101" font-family="'ArialMT'" font-size="16.831" transform="matrix(1 0 0 1 -28.3721 -153.5801)">1</text></g></svg>