<svg xmlns="http://www.w3.org/2000/svg" xmlns:xlink="http://www.w3.org/1999/xlink" id="Layer_1" width="52" height="60" x="0" y="0" enable-background="new 0 0 52 60" version="1.1" viewBox="0 0 52 60" xml:space="preserve"><g id="nozzle"><g><path fill="none" stroke="#FFF" stroke-miterlimit="10" stroke-width="3.002" d="M48.691,41.711 c0,1.566-1.281,2.85-2.849,2.85H5.849C4.282,44.561,3,43.277,3,41.711v-7.133c0-1.566,1.282-2.85,2.849-2.85h39.995 c1.566,0,2.85,1.282,2.85,2.85v7.133H48.691z"/></g><rect width="24.604" height="12.83" x="13.544" y="31.729" fill="none" stroke="#FFF" stroke-miterlimit="10" stroke-width="3.002"/><path fill="none" stroke="#FFF" stroke-miterlimit="10" stroke-width="3.002" d="M25.844,56.844 c-0.75,0-1.466-0.293-1.961-0.797l-10.34-10.572h24.602L27.639,56.203C27.156,56.611,26.516,56.844,25.844,56.844z"/><path fill="none" stroke="#FFF" stroke-miterlimit="10" stroke-width="3.002" d="M31.854,3.311H19.908 c-1.567,0-2.848,1.281-2.848,2.849v18.164v4.56v2.849h2.848h4.747h2.453h4.746h2.849v-2.849v-4.56V6.159 C34.701,4.592,33.421,3.311,31.854,3.311z"/><line x1="12.326" x2="39.494" y1="14.269" y2="7.849" fill="none" stroke="#FFF" stroke-linecap="round" stroke-miterlimit="10" stroke-width="3.002"/><line x1="12.326" x2="39.494" y1="20.625" y2="14.203" fill="none" stroke="#FFF" stroke-linecap="round" stroke-miterlimit="10" stroke-width="3.002"/><line x1="12.326" x2="39.494" y1="26.979" y2="20.558" fill="none" stroke="#FFF" stroke-linecap="round" stroke-miterlimit="10" stroke-width="3.002"/></g></svg>