<svg xmlns="http://www.w3.org/2000/svg" xmlns:xlink="http://www.w3.org/1999/xlink" id="Layer1" width="62" height="62" x="0" y="0" enable-background="new 0 0 62 62" version="1.1" viewBox="0 0 62 62" xml:space="preserve"><g xmlns:cc="http://creativecommons.org/ns#" xmlns:dc="http://purl.org/dc/elements/1.1/" xmlns:inkscape="http://www.inkscape.org/namespaces/inkscape" xmlns:rdf="http://www.w3.org/1999/02/22-rdf-syntax-ns#" xmlns:sodipodi="http://sodipodi.sourceforge.net/DTD/sodipodi-0.dtd" xmlns:svg="http://www.w3.org/2000/svg" id="Circle" inkscape:version="0.92.2 5c3e80d, 2017-08-06" sodipodi:docname="pause.svg"><ellipse id="path4508" cx="30.8" cy="30.8" fill="none" stroke="#FFF" stroke-linecap="round" stroke-linejoin="round" stroke-width="3" rx="29.041" ry="29.131"/></g><g id="Controls"><g><line x1="18.404" x2="18.404" y1="12.98" y2="48.62" fill="none" stroke="#FFF" stroke-linecap="round" stroke-miterlimit="10" stroke-width="2.88"/><g><circle cx="18.404" cy="29" r="5.533" fill="#FFF" stroke="#231F20" stroke-miterlimit="10" stroke-width="1.44"/><ellipse cx="18.404" cy="28.999" fill="#231F20" rx="1.946" ry="1.922"/></g></g><g><line x1="30.799" x2="30.799" y1="12.98" y2="48.62" fill="none" stroke="#FFF" stroke-linecap="round" stroke-miterlimit="10" stroke-width="2.88"/><g><circle cx="30.799" cy="41" r="5.533" fill="#FFF" stroke="#231F20" stroke-miterlimit="10" stroke-width="1.44"/><path d="M32.746,40.999c0,1.062-0.871,1.922-1.947,1.922c-1.075,0-1.947-0.86-1.947-1.922c0-1.06,0.872-1.92,1.947-1.92 C31.874,39.079,32.746,39.939,32.746,40.999z"/></g></g><g><line x1="43.198" x2="43.198" y1="12.98" y2="48.62" fill="none" stroke="#FFF" stroke-linecap="round" stroke-miterlimit="10" stroke-width="2.88"/><g><circle cx="43.198" cy="20.999" r="5.533" fill="#FFF" stroke="#231F20" stroke-miterlimit="10" stroke-width="1.44"/><path fill="#231F20" d="M45.145,20.998c0,1.062-0.873,1.922-1.946,1.922c-1.075,0-1.947-0.86-1.947-1.922 c0-1.059,0.872-1.92,1.947-1.92C44.271,19.078,45.145,19.94,45.145,20.998z"/></g></g></g></svg>