<svg xmlns="http://www.w3.org/2000/svg" xmlns:xlink="http://www.w3.org/1999/xlink" id="Layer_1" width="60.137" height="60.777" x="0" y="0" enable-background="new 0 0 60.137 60.777" version="1.1" viewBox="0 0 60.137 60.777" xml:space="preserve"><g id="Layer_1_2_"><g id="Layer_1_1_"><g xmlns:cc="http://creativecommons.org/ns#" xmlns:dc="http://purl.org/dc/elements/1.1/" xmlns:inkscape="http://www.inkscape.org/namespaces/inkscape" xmlns:rdf="http://www.w3.org/1999/02/22-rdf-syntax-ns#" xmlns:sodipodi="http://sodipodi.sourceforge.net/DTD/sodipodi-0.dtd" xmlns:svg="http://www.w3.org/2000/svg" id="group" inkscape:version="0.92.2 5c3e80d, 2017-08-06" sodipodi:docname="speed-step.svg"><path id="arch" fill="none" stroke="#FFF" stroke-linecap="round" stroke-linejoin="round" stroke-width="3" d="M11.583,53C6.82,48.218,3.872,41.617,3.872,34.322c0-14.587,11.786-26.413,26.322-26.413c14.534,0,26.32,11.826,26.32,26.413 c0,7.295-2.94,13.901-7.71,18.678" inkscape:connector-curvature="0" sodipodi:nodetypes="csssc"/><path id="_x31_00_x25_" fill="none" stroke="#FFF" stroke-linecap="round" stroke-linejoin="round" stroke-width="3" d="M45.069,49.31l3.685,3.652" inkscape:connector-curvature="0"/><path id="_x38_3_x25_" fill="none" stroke="#FFF" stroke-linecap="round" stroke-linejoin="round" stroke-width="3" d="M50.662,34.322h4.998" inkscape:connector-curvature="0"/><path id="_x36_7_x25_" fill="none" stroke="#FFF" stroke-linecap="round" stroke-linejoin="round" stroke-width="3" d="M44.867,19.688l3.544-3.534" inkscape:connector-curvature="0"/><path id="_x35_0_x25_" fill="none" stroke="#FFF" stroke-linecap="round" stroke-linejoin="round" stroke-width="3" d="M30.195,13.34v-5" inkscape:connector-curvature="0"/><path id="_x33_4_x25__1_" fill="none" stroke="#FFF" stroke-linecap="round" stroke-linejoin="round" stroke-width="3" d="M15.368,19.745l-3.482-3.424" inkscape:connector-curvature="0"/><path id="_x31_7_x25__1_" fill="none" stroke="#FFF" stroke-linecap="round" stroke-linejoin="round" stroke-width="3" d="M9.569,34.322h-5" inkscape:connector-curvature="0"/><path id="_x30__x25__1_" fill="none" stroke="#FFF" stroke-linecap="round" stroke-linejoin="round" stroke-width="3" d="M15.069,49.513l-3.502,3.542" inkscape:connector-curvature="0"/><g id="needle-0_x25_"><path id="cone_1_" fill="#FFF" stroke="#FFF" stroke-linecap="round" stroke-linejoin="round" d="M17.75,46.857l9.192-12.021l2.828,2.827L17.75,46.857z" inkscape:connector-curvature="0"/><circle id="dot_1_" cx="30.206" cy="34.35" r="2.5" fill="#FFF" stroke="#FFF" stroke-linecap="round" stroke-linejoin="round" stroke-width="3"/></g></g></g></g></svg>