<svg xmlns="http://www.w3.org/2000/svg" xmlns:xlink="http://www.w3.org/1999/xlink" id="Layer_1" width="60.137" height="60.777" x="0" y="0" enable-background="new 0 0 60.137 60.777" version="1.1" viewBox="0 0 60.137 60.777" xml:space="preserve"><g xmlns:cc="http://creativecommons.org/ns#" xmlns:dc="http://purl.org/dc/elements/1.1/" xmlns:inkscape="http://www.inkscape.org/namespaces/inkscape" xmlns:rdf="http://www.w3.org/1999/02/22-rdf-syntax-ns#" xmlns:sodipodi="http://sodipodi.sourceforge.net/DTD/sodipodi-0.dtd" xmlns:svg="http://www.w3.org/2000/svg" id="group" inkscape:version="0.92.2 5c3e80d, 2017-08-06" sodipodi:docname="speed-step.svg"><path id="arch" fill="none" stroke="#FFF" stroke-linecap="round" stroke-linejoin="round" stroke-width="3" d="M11.455,55c-4.767-4.777-7.71-11.383-7.71-18.678c0-14.587,11.786-26.413,26.321-26.413c14.538,0,26.324,11.826,26.324,26.413 c0,7.295-2.947,13.896-7.711,18.678" inkscape:connector-curvature="0" sodipodi:nodetypes="csssc"/><path id="_x30__x25_" fill="none" stroke="#FFF" stroke-linecap="round" stroke-linejoin="round" stroke-width="3" d="M11.51,54.964l3.861-3.178" inkscape:connector-curvature="0"/><path id="_x31_7_x25_" fill="none" stroke="#FFF" stroke-linecap="round" stroke-linejoin="round" stroke-width="3" d="M4.602,35.998L9.6,36.111" inkscape:connector-curvature="0"/><path id="_x33_4_x25_" fill="none" stroke="#FFF" stroke-linecap="round" stroke-linejoin="round" stroke-width="3" d="M11.27,18.976l3.448,3.621" inkscape:connector-curvature="0"/><path id="_x35_0_x25_" fill="none" stroke="#FFF" stroke-linecap="round" stroke-linejoin="round" stroke-width="3" d="M30.248,10.34v5" inkscape:connector-curvature="0"/><path id="_x36_7_x25_" fill="none" stroke="#FFF" stroke-linecap="round" stroke-linejoin="round" stroke-width="3" d="M49.025,18.887l-3.445,3.618" inkscape:connector-curvature="0"/><path id="_x38_3_x25_" fill="none" stroke="#FFF" stroke-linecap="round" stroke-linejoin="round" stroke-width="3" d="M55.694,35.82l-5,0.112" inkscape:connector-curvature="0"/><path id="_x31_00_x25_" fill="none" stroke="#FFF" stroke-linecap="round" stroke-linejoin="round" stroke-width="3" d="M48.696,55.054l-3.858-3.181" inkscape:connector-curvature="0"/><g id="needle_1_"><path id="cone_1_" fill="#FFF" stroke="#FFF" stroke-linecap="round" stroke-linejoin="round" d="M32.193,33.347l-4,0.003l1.987-15.002L32.193,33.347z" inkscape:connector-curvature="0"/><circle id="dot_1_" cx="30.159" cy="36" r="2.5" fill="#FFF" stroke="#FFF" stroke-linecap="round" stroke-linejoin="round" stroke-width="3"/></g></g></svg>