<svg xmlns="http://www.w3.org/2000/svg" xmlns:svg="http://www.w3.org/2000/svg" id="svg4160" width="60.138" height="60.777" version="1.1" viewBox="0 0 60.138 60.777"><metadata id="metadata4165"/><g id="layer2" style="display:inline" transform="translate(-3.5328446,2.2636422)"><g id="g53" transform="translate(-6.3983179,-13.423556)"><path id="rect4760-8" d="m 22.795553,16.619161 3.21242,-1.25 3.212421,1.25 v 47.687531 l -3.212421,0.892857 -3.21242,-0.892857 z" style="fill:none;fill-opacity:1;stroke:#fff;stroke-width:0;stroke-linecap:round;stroke-linejoin:round;stroke-miterlimit:4;stroke-dasharray:none;stroke-opacity:1"/><path id="path4508" d="m 21.386305,66.158981 c -4.763661,-4.779819 -7.710046,-11.383077 -7.710046,-18.676835 0,-14.587515 11.785542,-26.413032 26.323744,-26.413032 14.538202,1e-6 26.323743,11.825517 26.323743,26.413032 0,7.293757 -2.946385,13.897016 -7.710046,18.676834" style="fill:none;fill-opacity:1;fill-rule:nonzero;stroke:#fff;stroke-width:3;stroke-linecap:round;stroke-linejoin:round;stroke-miterlimit:4;stroke-dasharray:none;stroke-opacity:1"/><path id="path4190" d="m 40.178571,21.5 v 5" style="fill:none;fill-rule:evenodd;stroke:#fff;stroke-width:3;stroke-linecap:round;stroke-linejoin:round;stroke-miterlimit:4;stroke-dasharray:none;stroke-opacity:1"/><path id="path4190-4" d="M 58.956156,30.046678 55.50813,33.667606" style="fill:none;fill-rule:evenodd;stroke:#fff;stroke-width:3;stroke-linecap:round;stroke-linejoin:round;stroke-miterlimit:4;stroke-dasharray:none;stroke-opacity:1"/><path id="path4190-1" d="m 65.624363,46.979293 -4.998726,0.112844" style="fill:none;fill-rule:evenodd;stroke:#fff;stroke-width:3;stroke-linecap:round;stroke-linejoin:round;stroke-miterlimit:4;stroke-dasharray:none;stroke-opacity:1"/><path id="path4190-16" d="M 58.626842,66.213553 54.766014,63.036446" style="fill:none;fill-rule:evenodd;stroke:#fff;stroke-width:3;stroke-linecap:round;stroke-linejoin:round;stroke-miterlimit:4;stroke-dasharray:none;stroke-opacity:1"/><path id="path4190-4-0" d="M 21.200774,30.135964 24.6488,33.756892" style="fill:none;fill-rule:evenodd;stroke:#fff;stroke-width:3;stroke-linecap:round;stroke-linejoin:round;stroke-miterlimit:4;stroke-dasharray:none;stroke-opacity:1"/><path id="path4190-1-4" d="m 14.532566,47.157864 4.998726,0.112844" style="fill:none;fill-rule:evenodd;stroke:#fff;stroke-width:3;stroke-linecap:round;stroke-linejoin:round;stroke-miterlimit:4;stroke-dasharray:none;stroke-opacity:1"/><path id="path4190-16-1" d="M 21.440802,66.124268 25.30163,62.947161" style="fill:none;fill-rule:evenodd;stroke:#fff;stroke-width:3;stroke-linecap:round;stroke-linejoin:round;stroke-miterlimit:4;stroke-dasharray:none;stroke-opacity:1"/><path id="path4242" d="m 43.310553,48.055281 -1.497561,-3.709086 14.65785,-3.761307 z" style="fill:#fff;fill-opacity:1;fill-rule:evenodd;stroke:#fff;stroke-width:1px;stroke-linecap:round;stroke-linejoin:round;stroke-opacity:1"/><circle id="path4240" cx="40.089" cy="47.161" r="2.5" style="fill:#fff;fill-opacity:1;fill-rule:nonzero;stroke:#fff;stroke-width:3;stroke-linecap:round;stroke-linejoin:round;stroke-miterlimit:4;stroke-dasharray:none;stroke-opacity:1"/></g></g></svg>