<svg xmlns="http://www.w3.org/2000/svg" xmlns:xlink="http://www.w3.org/1999/xlink" width="77" height="80" version="1.1" viewBox="0 0 77 80"><title>extruder-4</title><desc>Created with Sketch.</desc><g id="Page-1" fill="none" fill-rule="evenodd" stroke="none" stroke-width="1"><g id="Artboard" transform="translate(-261.000000, -189.000000)"><g id="extruder-4" transform="translate(261.000000, 189.000000)"><g id="Group" fill="#FFF" stroke="#FFF" stroke-linecap="round" stroke-width="2" transform="translate(10.000000, 6.000000)"><path id="Line" d="M0.5,3.5 L6,0.5"/><path id="Line-2" d="M6,0.5 L14.5,0.5"/><path id="Line-3" stroke-linejoin="round" d="M14.5,0.5 L17.5,4.5"/><path id="Line-5" d="M0.5,3.5 L0.5,15.5"/><path id="Line-4" d="M17.5,4.5 L29.5,4.5"/><path id="Line-6" d="M0.5,15.5 L4,21.5"/><path id="Line-8" d="M4,47.5 L0.5,52.5"/><path id="Line-9" d="M0.5,52.5 L0.5,66.5"/><path id="Line-7" d="M4,21.5 L4,47.5"/><path id="Line-10" d="M0.5,66.5 L13.5,69"/><path id="Line-11" d="M13.5,69 L17.5,64.5"/><path id="Line-12" d="M17.5,64.5 L29.5,64.5"/></g><g id="Group" stroke="#FFF" stroke-linecap="round" stroke-width="2" transform="translate(52.000000, 40.500000) scale(-1, 1) translate(-52.000000, -40.500000) translate(37.000000, 6.000000)"><path id="Line" d="M0.5,3.5 L6,0.5"/><path id="Line-2" d="M6,0.5 L14.5,0.5"/><path id="Line-3" stroke-linejoin="round" d="M14.5,0.5 L17.5,4.5"/><path id="Line-5" d="M0.5,3.5 L0.5,15.5"/><path id="Line-4" d="M17.5,4.5 L29.5,4.5"/><path id="Line-6" d="M0.5,15.5 L4,21.5"/><path id="Line-8" d="M4,47.5 L0.5,52.5"/><path id="Line-9" d="M0.5,52.5 L0.5,66.5"/><path id="Line-7" d="M4,21.5 L4,47.5"/><path id="Line-10" d="M0.5,66.5 L13.5,69"/><path id="Line-11" d="M13.5,69 L17.5,64.5"/><path id="Line-12" d="M17.5,64.5 L29.5,64.5"/></g><circle id="Oval" cx="38.5" cy="35.5" r="19.5" stroke="#FFF" stroke-width="2"/><circle id="Oval" cx="55" cy="22" r="21" fill="#FFF" stroke="#000" stroke-width=".5"/><text id="4" fill="#000" font-family="OpenSans-SemiBold, Open Sans" font-size="26" font-weight="500"><tspan x="47.619" y="31">4</tspan></text><path id="Line-16" stroke="#FFF" stroke-linecap="round" stroke-width="2" d="M35.5,73.5 L38.5,77.5"/><path id="Line-17" stroke="#FFF" stroke-linecap="round" stroke-width="2" d="M38.5,77.5 L41.5,73.5"/><path id="Line-14" stroke="#FFF" stroke-linecap="round" stroke-width="2" d="M29.5,73.5 L47.5,73.5"/></g></g></g></svg>